PathFileType	4	(X/Y/Z)	KinectSkeleton.trc																																																	
DataRate	CameraRate	NumFrames	NumMarkers	Units	OrigDataRate	OrigDataStartFrame	OrigNumFrames																																													
60	60	11	17	mm	60	186	300																																													
Frame#	Time	Neck			ShoulderMid			R.Shoulder			L.Shoulder			R.Elbow			L.Elbow			R.Wrist			L.Wrist			HipCenter			R.Hip			L.Hip			R.Knee			L.Knee			R.Ankle			L.Ankle			R.Foot			L.Foot		
		X1	Y1	Z1	X2	Y2	Z2	X3	Y3	Z3	X4	Y4	Z4	X5	Y5	Z5	X6	Y6	Z6	X7	Y7	Z7	X8	Y8	Z8	X9	Y9	Z9	X10	Y10	Z10	X11	Y11	Z11	X12	Y12	Z12	X13	Y13	Z13	X14	Y14	Z14	X15	Y15	Z15	X16	Y16	Z16	X17	Y17	Z17
																																																				
186	12.291	-1327.561	1465.616	728.937	-1327.561	1465.616	728.937	-1330.145	1346.522	865.757	-1336.849	1455.537	539.148	-1425.885	1072.873	881.057	-1330.404	1435.731	254.984	-1360.184	840.796	859.405	-1195.962	1474.134	60.977	-1356.512	924.182	620.686	-1364.616	912.917	704.32	-1347.524	936.673	527.94	-1431.488	506.756	680.355	-1282.26	547.452	407	-1525.079	120.487	649.636	-1250.305	170.382	295.586	-1381.674	30.725	704.047	-1062.472	137.529	264.773
187	12.353	-1338.141	1473.139	747.424	-1338.141	1473.139	747.424	-1333.107	1348.239	880.281	-1354.568	1468.184	556.999	-1425.679	1072.025	892.267	-1364.155	1474.955	271.092	-1364.949	838.681	860.46	-1249.971	1526.12	66.095	-1378.088	933.047	625.436	-1384.154	919.86	709.33	-1371.361	947.671	532.402	-1441.19	510.594	682.467	-1321.23	564.647	381.993	-1526.935	120.982	648.978	-1303.178	193.59	244.359	-1381.976	31.387	702.022	-1117.522	154.852	203.594
188	12.413	-1346.498	1477.253	766.409	-1346.498	1477.253	766.409	-1338.436	1349.468	896.656	-1368.831	1479.046	576.596	-1425.668	1070.808	898.91	-1388.929	1512.212	292.651	-1368.973	836.551	863.731	-1290.054	1589.613	87.499	-1395.412	941.324	626.65	-1397.331	924.28	710.176	-1393.284	960.225	534.023	-1448.432	513.47	685.33	-1356.424	588.972	351.88	-1527.095	121.807	651.134	-1368.701	228.114	187.382	-1379.684	32.9	699.26	-1184.812	180.709	146.366
189	12.474	-1351.892	1475.144	779.059	-1351.892	1475.144	779.059	-1339.741	1342.867	904.057	-1379.521	1484.467	590.134	-1428.263	1064.727	902.438	-1427.667	1527.032	310.963	-1369.86	831.574	863.547	-1344.762	1619.293	104.988	-1407.967	943.715	627.931	-1407.352	925.601	711.218	-1408.649	963.804	535.568	-1454.785	514.65	684.16	-1399.248	604.674	327.792	-1530.326	122.706	647.984	-1423.226	255.957	140.364	-1383.075	34.051	696.811	-1245.085	200.936	86.01
190	12.537	-1352.158	1470.493	786.261	-1352.158	1470.493	786.261	-1341.068	1336.654	908.384	-1388.095	1485.835	600.543	-1425.3	1058.724	904.558	-1437.914	1557.362	329.153	-1372.404	825.979	863.008	-1366.429	1655.543	123.03	-1418.323	946.889	622.516	-1416.116	925.854	704.648	-1420.771	970.217	531.434	-1458.865	516.094	684.034	-1435.678	620.998	311.556	-1528.711	124.797	651.659	-1487.339	283.263	114.042	-1384.766	31.12	697.635	-1315.809	231.91	41.368
191	12.599	-1351.791	1467.468	789.112	-1351.791	1467.468	789.112	-1339.748	1332.682	909.334	-1392.438	1487.022	605.285	-1423.754	1055.243	907.436	-1445.548	1565.977	337.168	-1373.217	822.973	863.079	-1381.57	1662.613	128.394	-1424.213	948.225	617.43	-1419.816	925.498	698.854	-1429.089	973.427	527.134	-1460.495	516.151	681.914	-1451.493	627.996	303.42	-1527.08	124.9	651.542	-1513.426	295.183	102.045	-1383.87	31.156	698.359	-1345.564	234.681	28.826
192	12.66	-1357.645	1470.532	792.917	-1357.645	1470.532	792.917	-1342.422	1333.778	911.206	-1399.376	1490.74	608.719	-1421.386	1054.198	908.551	-1455.848	1579.537	343.714	-1381.677	819.22	864.506	-1403.556	1681.748	133.736	-1434.521	952.656	616.164	-1429.198	929.043	697.476	-1440.425	978.843	525.992	-1464.003	518.222	680.82	-1484.946	641.57	291.698	-1526.316	125.343	650.787	-1558.289	316.275	80.398	-1383.378	30.806	698.332	-1396.089	251.516	-2.44
193	12.721	-1361.893	1471.782	791.771	-1361.893	1471.782	791.771	-1342.793	1333.218	908.554	-1403.034	1492.713	607.166	-1420.428	1052.478	906.254	-1471.782	1585.154	345.529	-1382.799	816.302	863.334	-1421.204	1689.849	135.644	-1442.638	953.711	612.593	-1439.229	929.662	694.111	-1446.419	980.38	522.193	-1470.304	517.419	678.648	-1511.144	646.937	285.243	-1527.181	122.726	647.803	-1603.601	327.264	70.962	-1384.819	30.251	702.35	-1444.15	259.11	-15.582
194	12.781	-1362.839	1472.262	789.309	-1362.839	1472.262	789.309	-1346.246	1334.403	907.249	-1408.252	1494.657	605.392	-1425.632	1053.613	902.23	-1478.972	1588.043	344.021	-1382.086	819.616	851.131	-1436.881	1696.04	133.415	-1454.219	954.827	610.501	-1448.91	930.717	692.068	-1460.107	981.563	520.045	-1476.3	517.443	676.106	-1539.34	648.699	285.322	-1528.765	121.281	646.426	-1641.548	329.877	72.817	-1383.675	30.863	698.278	-1482.917	254.653	-10.133
195	12.843	-1369.844	1472.671	787.54	-1369.844	1472.671	787.54	-1348.387	1334.298	903.821	-1411.78	1499.78	603.805	-1430.984	1054.285	902.238	-1481.029	1593.66	342.103	-1391.517	819.229	852.269	-1439.05	1698.881	129.975	-1466.315	957.295	606.661	-1458.531	932.749	687.932	-1474.948	984.514	516.535	-1480.292	518.885	674.903	-1562.313	646.902	291.408	-1529.085	121.976	647.02	-1671.977	324.824	87.431	-1384.517	30.072	697.931	-1522.39	232.331	4.977
196	12.905	-1371.159	1472.663	777.539	-1371.159	1472.663	777.539	-1352.741	1336.169	896.12	-1415.166	1496.135	594.46	-1435.06	1056.988	899.67	-1485.098	1589.034	333.513	-1408.568	820.2	852.917	-1446.825	1694.063	121.391	-1477.312	957.567	604.193	-1470.077	933.258	685.322	-1485.335	984.524	514.224	-1487.539	520.368	673.821	-1583.149	639.632	307.427	-1528.469	123.547	649.183	-1706.899	314.009	120.085	-1383.343	33.013	699.112	-1564.44	201.741	52.194
